Coordinates
version=1
nRows=12
nColumns=34
inDegrees=yes

Units are S.I. units (second, meters, Newtons, ...)
If the header above contains a line with 'inDegrees', this indicates whether rotational values are in degrees (yes) or radians (no).

endheader
time	pelvis_tilt	pelvis_list	pelvis_rotation	pelvis_tx	pelvis_ty	pelvis_tz	hip_flexion_r	hip_adduction_r	hip_rotation_r	knee_angle_r	ankle_angle_r	subtalar_angle_r	mtp_angle_r	hip_flexion_l	hip_adduction_l	hip_rotation_l	knee_angle_l	ankle_angle_l	subtalar_angle_l	mtp_angle_l	lumbar_extension	lumbar_bending	lumbar_rotation	arm_flex_r	arm_add_r	arm_rot_r	elbow_flex_r	pro_sup_r	arm_flex_l	arm_add_l	arm_rot_l	elbow_flex_l	pro_sup_l
      9.75000000	      7.14441766	    -12.99681647	    -64.18080527	      2.01061931	      1.02249815	      4.24990145	    -15.96523081	     10.33685156	      0.81452740	     24.63118633	     25.76175934	     16.30405892	      0.00000000	    -30.00000025	      6.13387189	      3.86984269	      0.00000000	     26.50281315	      6.68724636	      0.00000000	     -3.02963227	     -4.64272445	      8.77095895	     17.65460074	      6.04732578	     17.47848855	     17.19774053	    114.14307291	     12.08814989	     13.58538669	     22.35383345	     13.37685892	     98.09662995
      9.76666670	      7.09528772	    -13.01486852	    -64.28909542	      2.00894687	      1.02273366	      4.25064657	    -15.73922482	     10.32478049	      0.62832581	     24.97452864	     24.75221488	     16.69733004	      0.00000000	    -30.00000025	      6.02434440	      3.85640297	      0.00000000	     26.53172762	      6.64289260	      0.00000000	     -2.99794505	     -4.85084419	      8.57189385	     17.69588398	      5.99583035	     17.36072754	     17.05450716	    114.11869635	     12.25595839	     13.24028850	     22.38915588	     13.47644808	     98.10132107
      9.78333330	      6.95144519	    -13.04631719	    -64.36348820	      2.00794439	      1.02280849	      4.25163769	    -15.34502714	     10.41137992	      0.20181296	     25.61172032	     23.78890820	     16.90019691	      0.00000000	    -30.00000025	      5.82184854	      3.80893988	      0.00000000	     26.57648037	      6.59053104	      0.00000000	     -2.87213527	     -4.92764545	      8.42699760	     17.67557918	      5.93727413	     17.20806862	     16.89864438	    114.07683464	     12.40978490	     13.03845283	     22.47391286	     13.67029611	     98.12841431
      9.80000000	      6.86181231	    -13.08196763	    -64.48388680	      2.00697316	      1.02284046	      4.25206722	    -15.03086050	     10.40180505	     -0.34322223	     26.13903354	     22.78703316	     17.05411594	      0.00000000	    -30.00000025	      5.73419925	      3.67670218	      0.00000000	     26.62353464	      6.50743861	      0.00000000	     -2.81690634	     -4.95560669	      8.23756875	     17.78389327	      5.81345207	     16.99403328	     16.81696204	    114.01469921	     12.60513773	     12.84980136	     22.60296627	     13.91905113	     98.17477432
      9.81666670	      6.88583198	    -13.04084823	    -64.69352140	      2.00560561	      1.02261582	      4.25298267	    -14.86341968	     10.25358352	     -0.74459528	     26.39985866	     21.75454032	     17.22283856	      0.00000000	    -30.00000025	      5.78597501	      3.53790529	      0.00000000	     26.70127575	      6.39686330	      0.00000000	     -2.62094690	     -5.15669941	      8.09112164	     17.82241295	      5.79623308	     16.83541730	     16.82332722	    113.96504441	     12.75621492	     12.58786655	     22.69625113	     14.10340226	     98.21180092
      9.83333330	      6.85854730	    -13.06118650	    -64.84825727	      2.00447301	      1.02250957	      4.25322159	    -14.52600802	     10.17668076	     -1.26752568	     26.87398119	     20.42182267	     17.40273531	      0.00000000	    -30.00000025	      5.75984465	      3.41252286	      0.00000000	     26.67401477	      6.33464595	      0.00000000	     -2.53715532	     -5.30167538	      8.00148097	     17.85948871	      5.66468509	     16.63815411	     16.81174083	    113.90281402	     12.92772714	     12.32526420	     22.83312215	     14.39468483	     98.26802063
      9.85000000	      7.09202192	    -12.99611375	    -64.45543710	      2.00433339	      1.02264035	      4.25282812	    -14.14121990	      9.68677980	     -3.08985157	     27.45986484	     19.21460618	     17.98671012	      0.00000000	    -30.00000025	      5.79460226	      3.42455132	      0.00000000	     26.69258294	      6.76991507	      0.00000000	     -2.66050132	     -5.72244703	      7.28233610	     17.88917631	      5.76081566	     15.27888401	     16.83852391	    113.44722295	     12.98850361	     11.75386268	     24.41706561	     15.09781463	     98.85857655
      9.86666670	      7.19254359	    -12.96417205	    -64.67837140	      2.00287099	      1.02279342	      4.25340596	    -13.91126175	      9.41466543	     -3.75589465	     27.74565130	     17.68618011	     17.64212340	      0.00000000	    -30.00000025	      5.92295362	      3.24303272	      0.00000000	     26.64524710	      6.68986975	      0.00000000	     -2.67608881	     -6.02347335	      7.37746378	     17.91268454	      5.58852879	     15.16022862	     16.90095388	    113.41173479	     13.26271940	     11.52722004	     24.56782929	     15.06107656	     98.91943492
      9.88333330	      7.37532831	    -12.87536407	    -64.72899058	      2.00221593	      1.02283215	      4.25400628	    -13.74396161	      9.12866827	     -4.10706269	     27.90281964	     16.42885274	     17.18153908	      0.00000000	    -30.00000025	      6.11208650	      3.20603178	      0.00000000	     26.53737262	      6.70243784	      0.00000000	     -2.62442832	     -6.33431483	      7.27046178	     17.89984536	      5.48070734	     15.02807788	     16.97244441	    113.36916862	     13.38643048	     11.27390290	     24.82934355	     15.19969799	     99.02038724
      9.90000000	      7.41333740	    -12.86207641	    -64.48720781	      2.00178077	      1.02296253	      4.25425178	    -13.69751482	      9.51851461	     -3.06312103	     27.71471260	     14.70065345	     15.00226171	      0.00000000	    -30.00000025	      5.99186624	      3.68572748	      0.00000000	     26.44291879	      6.41654045	      0.00000000	     -2.65326064	     -6.53816330	      6.87169810	     17.85294478	      5.52495379	     14.01004457	     17.09554213	    113.01031769	     13.61884388	     10.68582221	     27.59716191	     15.16989914	    100.04067012
      9.91666670	      7.51120876	    -12.88446966	    -64.55846026	      2.00082042	      1.02311715	      4.25367521	    -13.31544854	      9.40537959	     -3.18666176	     28.20670593	     13.27941637	     14.72084027	      0.00000000	    -30.00000025	      6.08443497	      3.54248557	      0.00000000	     26.35019898	      6.40082666	      0.00000000	     -2.93992320	     -6.81786225	      6.48868603	     18.14823715	      5.50090583	     13.98403265	     17.32997095	    113.00356246	     13.92045887	     10.25896005	     27.75540170	     15.35220004	    100.10810777
      9.93333330	      7.54553531	    -12.90151450	    -64.47904750	      2.00013166	      1.02330868	      4.25329726	    -13.02498022	      9.44949280	     -3.43498302	     28.51937723	     11.93981525	     13.72773290	      0.00000000	    -30.00000025	      6.04294101	      3.45120493	      0.00000000	     26.28226130	      6.58029835	      0.00000000	     -3.21478777	     -7.06916803	      6.03240014	     18.42399026	      5.55085337	     13.95999875	     17.43102301	    112.98912542	     14.23374589	      9.84561455	     28.30163326	     15.69825579	    100.32192389
